<?xml version="1.0" encoding="UTF-8"?><svg id="Layer_2" xmlns="http://www.w3.org/2000/svg" viewBox="0 0 1191.97 270.69"><defs><style>.cls-1{fill:#39b54a;}</style></defs><g id="Layer_1-2"><path class="cls-1" d="M270.69,59.98c0-33.07-26.9-59.98-59.98-59.98H59.98C26.9,0,0,26.9,0,59.98v150.74c0,33.07,26.9,59.97,59.98,59.97h150.74c33.07,0,59.98-26.9,59.98-59.97V59.98ZM137.04,105.23c-.85-4.84-1.87-9.63-3.24-14.39-6.39-22.24-18.94-43.45-37.29-63.04-4.85-5.19-10.21-10.32-15.94-15.35h114.15c-27.02,25.14-47.28,57.73-57.68,92.78ZM139.55,188.46l.38-28.05c1.1-12.44,2.83-24.57,5.14-36.05,8.76-43.21,33.7-83.8,68.53-111.77,10.43.63,19.97,4.59,27.52,10.89-21.41,21.04-34.06,48.06-36.03,77.01-9.11,5.82-17.67,12.66-25.38,20.47-7.2,7.2-13.66,15.15-19.2,23.62-8.61,13.15-15.51,27.77-20.95,43.87ZM214.31,109.34c14.05-8.51,29.11-13.87,43.93-15.68v39.72c-18.14-8.53-38-13.37-57.83-14.3,4.45-3.55,9.09-6.82,13.9-9.73ZM258.24,81.16c-13.38,1.45-26.9,5.49-39.85,11.84,3.39-22.59,14.19-43.53,31.16-60.33,5.46,7.73,8.69,17.14,8.69,27.31v21.18ZM59.98,12.45h1.09c9.87,7.7,18.75,15.71,26.35,23.86,17,18.14,28.58,37.65,34.42,57.96,5.76,20.15,5.97,41.58,5.65,65.55-.39,4.63-.71,9.32-.94,14.08-8.91-21.45-21.27-40.5-36.07-55.03-6.78-6.65-14.13-12.64-21.86-18.07l.22-.02c-2.12-21.09-12.47-41.17-28.39-55.07-5.81-5.11-12.37-9.36-19.54-12.72,8.59-12.39,22.89-20.53,39.07-20.53ZM15.24,44.09c6.26,2.89,11.97,6.55,17.01,10.98,10.99,9.6,18.78,22.65,22.34,36.81-13.16-7.49-27.32-13.26-42.14-17.18v-14.73c0-5.58,1.01-10.91,2.79-15.88ZM66.87,114.93c-19.11,2.85-37.81,9.73-54.42,20.24v-47.58c19.8,5.67,38.25,14.94,54.42,27.33ZM12.45,210.72v-60.47c19.85-14.38,43.63-22.86,67.47-24.16.6.57,1.24,1.09,1.83,1.68,22.24,21.83,38.6,54.92,44.94,90.86l-.55,39.62H59.98c-26.21,0-47.52-21.32-47.52-47.52ZM210.72,258.24h-72.04c3.38-43.9,13.92-78.87,32.24-106.83,4.63-7.09,10-13.75,15.94-19.9,24.35-1.24,49.43,4.34,71.38,15.84v63.36c0,26.2-21.32,47.52-47.52,47.52ZM159.97,22.34c9.05,21.96-9.33,22.82-9.33,22.82,0,0-12.42-13.29,9.33-22.82ZM125.18,39.87s-17.79,3.8-14.75-19.76c23.48,3.56,14.75,19.76,14.75,19.76ZM137.88,72.28s-17.14-6.09-2.2-24.56c18.13,15.35,2.2,24.56,2.2,24.56ZM158.52,127.55s-16.38-16.74,11.34-29.65c12.29,28-11.34,29.65-11.34,29.65ZM188.82,60.19c21.64,21.61.22,31.74.22,31.74,0,0-21.34-9.63-.22-31.74ZM197.72,47.02s-5.09-22.86,25.27-19.21c-4.32,30.27-25.27,19.21-25.27,19.21ZM203.77,157.68c-12.75,27.8-29.69,11.24-29.69,11.24,0,0,1.62-23.36,29.69-11.24ZM246.88,165.07c-29.04,9.58-28.44-14.11-28.44-14.11,0,0,18.22-14.72,28.44,14.11ZM251.87,113.31c-16.97,14.07-22.8-1.98-22.8-1.98,0,0,8.36-14.67,22.8,1.98ZM235.81,75.49s-8.92-14.34,12.6-19.11c4.29,21.63-12.6,19.11-12.6,19.11ZM104.82,97.9c27.72,12.91,11.34,29.65,11.34,29.65,0,0-23.63-1.65-11.34-29.65ZM85.85,60.19c21.12,22.11-.22,31.74-.22,31.74,0,0-21.41-10.13.22-31.74ZM51.69,27.81c30.36-3.65,25.27,19.21,25.27,19.21,0,0-20.95,11.06-25.27-19.21ZM95.75,163.39s-16.94,16.56-29.69-11.24c28.07-12.12,29.69,11.24,29.69,11.24ZM53.46,146.81s.6,23.68-28.44,14.1c10.22-28.82,28.44-14.1,28.44-14.1ZM18.65,111.01c14.45-16.65,22.8-1.98,22.8-1.98,0,0-5.83,16.06-22.8,1.98ZM20.73,54.65c21.53,4.77,12.6,19.11,12.6,19.11,0,0-16.89,2.52-12.6-19.11Z"/><path d="M316.85,201.96V65.03h100.39v29.77h-65.08v22.79h63.64v29.97h-63.64v54.4h-35.31Z"/><path d="M494.01,201.96v-9.85c-6.16,7.39-18.07,12.32-30.79,12.32-15.19,0-34.08-10.26-34.08-32.64,0-24.02,18.89-31.2,34.08-31.2,13.14,0,24.84,4.11,30.79,11.5v-12.52c0-8.62-7.39-14.37-20.12-14.37-9.85,0-20.12,3.7-28.12,10.47l-11.29-19.91c12.73-10.88,29.77-15.4,44.96-15.4,23.81,0,46.19,8.83,46.19,39.62v62h-31.61ZM494.01,167.67c-3.29-4.52-10.68-6.98-17.66-6.98-8.42,0-15.81,3.7-15.81,11.5s7.39,11.5,15.81,11.5c6.98,0,14.37-2.46,17.66-7.19v-8.83Z"/><path d="M673.63,201.96v-60.36c0-7.6-3.69-13.34-13.14-13.34-8.62,0-14.78,5.54-17.86,9.65v64.05h-31.61v-60.36c0-7.6-3.49-13.34-13.14-13.34-8.42,0-14.37,5.54-17.66,9.65v64.05h-31.62v-99.16h31.62v12.11c4.31-5.75,17.04-14.58,32.64-14.58,14.17,0,24.02,5.95,28.12,17.66,5.75-8.62,18.68-17.66,34.28-17.66,18.27,0,29.77,9.44,29.77,29.77v71.85h-31.41Z"/><path d="M737.88,156.18c9.85,9.85,25.04,18.07,43.73,18.07,12.11,0,19.5-5.13,19.5-11.7,0-7.8-8.83-10.88-23.4-13.96-22.58-4.52-54.2-10.26-54.2-42.7,0-22.99,19.5-42.91,54.61-42.91,21.97,0,41.06,6.57,55.63,19.09l-19.3,25.25c-11.5-9.44-26.48-14.17-38.59-14.17s-16.22,4.72-16.22,10.68c0,7.19,8.42,9.65,23.61,12.52,22.58,4.72,53.79,11.29,53.79,42.29,0,27.51-20.32,45.78-57.07,45.78-27.71,0-47.01-8.62-60.77-21.76l18.68-26.48Z"/><path d="M919.77,201.96v-57.28c0-12.11-6.36-16.42-16.22-16.42s-15.6,5.13-19.3,9.65v64.05h-31.62v-99.16h31.62v12.11c5.95-6.98,17.66-14.58,34.28-14.58,22.58,0,32.85,13.14,32.85,31.41v70.21h-31.61Z"/><path d="M1032.88,201.96v-9.85c-6.16,7.39-18.07,12.32-30.79,12.32-15.19,0-34.08-10.26-34.08-32.64,0-24.02,18.89-31.2,34.08-31.2,13.14,0,24.84,4.11,30.79,11.5v-12.52c0-8.62-7.39-14.37-20.12-14.37-9.85,0-20.12,3.7-28.12,10.47l-11.29-19.91c12.73-10.88,29.77-15.4,44.96-15.4,23.81,0,46.19,8.83,46.19,39.62v62h-31.61ZM1032.88,167.67c-3.29-4.52-10.68-6.98-17.66-6.98-8.42,0-15.81,3.7-15.81,11.5s7.39,11.5,15.81,11.5c6.98,0,14.37-2.46,17.66-7.19v-8.83Z"/><path d="M1119.09,239.73h-31.62V102.8h31.62v11.5c7.8-9.44,18.07-13.96,29.36-13.96,24.84,0,43.52,18.48,43.52,51.94s-18.68,52.14-43.52,52.14c-11.09,0-21.14-4.31-29.36-14.17v49.47ZM1137.98,128.26c-6.77,0-14.99,3.7-18.89,9.03v30.18c3.9,5.13,12.11,9.03,18.89,9.03,12.32,0,21.76-9.24,21.76-24.22s-9.44-24.02-21.76-24.02Z"/></g></svg>